<mxfile host="app.diagrams.net" modified="2023-11-02T02:06:46.270Z" agent="Mozilla/5.0 (Windows NT 10.0; Win64; x64) AppleWebKit/537.36 (KHTML, like Gecko) Chrome/118.0.0.0 Safari/537.36" etag="j75HVVKXgS4n_Mx_IRHR" version="22.0.8" type="device">
  <diagram name="第 1 页" id="F70vDK_BZsQe4YA0E1p9">
    <mxGraphModel dx="2261" dy="782" grid="1" gridSize="10" guides="1" tooltips="1" connect="1" arrows="1" fold="1" page="1" pageScale="1" pageWidth="827" pageHeight="1169" math="0" shadow="0">
      <root>
        <mxCell id="0" />
        <mxCell id="1" parent="0" />
        <mxCell id="8IRHUfgF0rJnRZtgmLyu-3" value="" style="edgeStyle=orthogonalEdgeStyle;rounded=0;orthogonalLoop=1;jettySize=auto;html=1;" edge="1" parent="1" source="8IRHUfgF0rJnRZtgmLyu-1" target="8IRHUfgF0rJnRZtgmLyu-2">
          <mxGeometry relative="1" as="geometry" />
        </mxCell>
        <mxCell id="8IRHUfgF0rJnRZtgmLyu-1" value="开始" style="strokeWidth=2;html=1;shape=mxgraph.flowchart.start_1;whiteSpace=wrap;" vertex="1" parent="1">
          <mxGeometry x="200" y="10" width="100" height="60" as="geometry" />
        </mxCell>
        <mxCell id="8IRHUfgF0rJnRZtgmLyu-5" value="" style="edgeStyle=orthogonalEdgeStyle;rounded=0;orthogonalLoop=1;jettySize=auto;html=1;" edge="1" parent="1" source="8IRHUfgF0rJnRZtgmLyu-2" target="8IRHUfgF0rJnRZtgmLyu-4">
          <mxGeometry relative="1" as="geometry" />
        </mxCell>
        <mxCell id="8IRHUfgF0rJnRZtgmLyu-2" value="pay接口" style="whiteSpace=wrap;html=1;strokeWidth=2;" vertex="1" parent="1">
          <mxGeometry x="190" y="130" width="120" height="30" as="geometry" />
        </mxCell>
        <mxCell id="8IRHUfgF0rJnRZtgmLyu-7" value="" style="edgeStyle=orthogonalEdgeStyle;rounded=0;orthogonalLoop=1;jettySize=auto;html=1;" edge="1" parent="1" source="8IRHUfgF0rJnRZtgmLyu-4" target="8IRHUfgF0rJnRZtgmLyu-6">
          <mxGeometry relative="1" as="geometry" />
        </mxCell>
        <mxCell id="8IRHUfgF0rJnRZtgmLyu-4" value="通过用户来进行RSA解密，校验提交报文" style="rounded=1;whiteSpace=wrap;html=1;absoluteArcSize=1;arcSize=14;strokeWidth=2;" vertex="1" parent="1">
          <mxGeometry x="200" y="212.5" width="100" height="50" as="geometry" />
        </mxCell>
        <mxCell id="8IRHUfgF0rJnRZtgmLyu-9" style="edgeStyle=orthogonalEdgeStyle;rounded=0;orthogonalLoop=1;jettySize=auto;html=1;entryX=0;entryY=0.5;entryDx=0;entryDy=0;entryPerimeter=0;exitX=0.5;exitY=0;exitDx=0;exitDy=0;" edge="1" parent="1" source="8IRHUfgF0rJnRZtgmLyu-6" target="8IRHUfgF0rJnRZtgmLyu-1">
          <mxGeometry relative="1" as="geometry">
            <mxPoint x="70" y="10" as="targetPoint" />
            <Array as="points">
              <mxPoint x="70" y="105" />
              <mxPoint x="71" y="105" />
              <mxPoint x="71" y="40" />
            </Array>
          </mxGeometry>
        </mxCell>
        <mxCell id="8IRHUfgF0rJnRZtgmLyu-10" value="返回失败报文" style="edgeLabel;html=1;align=center;verticalAlign=middle;resizable=0;points=[];" vertex="1" connectable="0" parent="8IRHUfgF0rJnRZtgmLyu-9">
          <mxGeometry x="-0.4345" relative="1" as="geometry">
            <mxPoint as="offset" />
          </mxGeometry>
        </mxCell>
        <mxCell id="8IRHUfgF0rJnRZtgmLyu-11" value="解密失败&lt;br&gt;" style="edgeLabel;html=1;align=center;verticalAlign=middle;resizable=0;points=[];" vertex="1" connectable="0" parent="8IRHUfgF0rJnRZtgmLyu-9">
          <mxGeometry x="-0.5655" y="-1" relative="1" as="geometry">
            <mxPoint as="offset" />
          </mxGeometry>
        </mxCell>
        <mxCell id="8IRHUfgF0rJnRZtgmLyu-12" style="edgeStyle=orthogonalEdgeStyle;rounded=0;orthogonalLoop=1;jettySize=auto;html=1;exitX=0.5;exitY=1;exitDx=0;exitDy=0;" edge="1" parent="1" source="8IRHUfgF0rJnRZtgmLyu-6">
          <mxGeometry relative="1" as="geometry">
            <mxPoint x="70" y="340" as="targetPoint" />
          </mxGeometry>
        </mxCell>
        <mxCell id="8IRHUfgF0rJnRZtgmLyu-13" value="成功" style="edgeLabel;html=1;align=center;verticalAlign=middle;resizable=0;points=[];" vertex="1" connectable="0" parent="8IRHUfgF0rJnRZtgmLyu-12">
          <mxGeometry x="-0.4199" relative="1" as="geometry">
            <mxPoint as="offset" />
          </mxGeometry>
        </mxCell>
        <mxCell id="8IRHUfgF0rJnRZtgmLyu-6" value="解密结果" style="rhombus;whiteSpace=wrap;html=1;rounded=1;arcSize=14;strokeWidth=2;" vertex="1" parent="1">
          <mxGeometry x="30" y="200" width="80" height="75" as="geometry" />
        </mxCell>
        <mxCell id="8IRHUfgF0rJnRZtgmLyu-24" value="" style="edgeStyle=orthogonalEdgeStyle;rounded=0;orthogonalLoop=1;jettySize=auto;html=1;" edge="1" parent="1" source="8IRHUfgF0rJnRZtgmLyu-14" target="8IRHUfgF0rJnRZtgmLyu-23">
          <mxGeometry relative="1" as="geometry" />
        </mxCell>
        <mxCell id="8IRHUfgF0rJnRZtgmLyu-14" value="报文格式检查" style="rounded=1;whiteSpace=wrap;html=1;absoluteArcSize=1;arcSize=14;strokeWidth=2;" vertex="1" parent="1">
          <mxGeometry x="20" y="340" width="100" height="50" as="geometry" />
        </mxCell>
        <mxCell id="8IRHUfgF0rJnRZtgmLyu-17" style="edgeStyle=orthogonalEdgeStyle;rounded=0;orthogonalLoop=1;jettySize=auto;html=1;" edge="1" parent="1" source="8IRHUfgF0rJnRZtgmLyu-15" target="8IRHUfgF0rJnRZtgmLyu-1">
          <mxGeometry relative="1" as="geometry">
            <mxPoint x="310" y="120" as="targetPoint" />
            <Array as="points">
              <mxPoint x="650" y="40" />
            </Array>
          </mxGeometry>
        </mxCell>
        <mxCell id="8IRHUfgF0rJnRZtgmLyu-18" value="验签失败" style="edgeLabel;html=1;align=center;verticalAlign=middle;resizable=0;points=[];" vertex="1" connectable="0" parent="8IRHUfgF0rJnRZtgmLyu-17">
          <mxGeometry x="0.0369" relative="1" as="geometry">
            <mxPoint as="offset" />
          </mxGeometry>
        </mxCell>
        <mxCell id="8IRHUfgF0rJnRZtgmLyu-29" style="edgeStyle=orthogonalEdgeStyle;rounded=0;orthogonalLoop=1;jettySize=auto;html=1;exitX=0.5;exitY=1;exitDx=0;exitDy=0;exitPerimeter=0;" edge="1" parent="1" source="8IRHUfgF0rJnRZtgmLyu-15">
          <mxGeometry relative="1" as="geometry">
            <mxPoint x="655" y="480" as="targetPoint" />
          </mxGeometry>
        </mxCell>
        <mxCell id="8IRHUfgF0rJnRZtgmLyu-15" value="是否符合订单号长度大于1小于32位" style="strokeWidth=2;html=1;shape=mxgraph.flowchart.decision;whiteSpace=wrap;" vertex="1" parent="1">
          <mxGeometry x="600" y="315" width="110" height="100" as="geometry" />
        </mxCell>
        <mxCell id="8IRHUfgF0rJnRZtgmLyu-22" value="" style="edgeStyle=orthogonalEdgeStyle;rounded=0;orthogonalLoop=1;jettySize=auto;html=1;" edge="1" parent="1" source="8IRHUfgF0rJnRZtgmLyu-19" target="8IRHUfgF0rJnRZtgmLyu-15">
          <mxGeometry relative="1" as="geometry" />
        </mxCell>
        <mxCell id="8IRHUfgF0rJnRZtgmLyu-19" value="订单号检查" style="rounded=1;whiteSpace=wrap;html=1;absoluteArcSize=1;arcSize=14;strokeWidth=2;" vertex="1" parent="1">
          <mxGeometry x="440" y="330" width="100" height="70" as="geometry" />
        </mxCell>
        <mxCell id="8IRHUfgF0rJnRZtgmLyu-25" style="edgeStyle=orthogonalEdgeStyle;rounded=0;orthogonalLoop=1;jettySize=auto;html=1;entryX=0;entryY=0.5;entryDx=0;entryDy=0;" edge="1" parent="1" source="8IRHUfgF0rJnRZtgmLyu-23" target="8IRHUfgF0rJnRZtgmLyu-19">
          <mxGeometry relative="1" as="geometry" />
        </mxCell>
        <mxCell id="8IRHUfgF0rJnRZtgmLyu-26" value="是" style="edgeLabel;html=1;align=center;verticalAlign=middle;resizable=0;points=[];" vertex="1" connectable="0" parent="8IRHUfgF0rJnRZtgmLyu-25">
          <mxGeometry x="0.1286" y="-1" relative="1" as="geometry">
            <mxPoint as="offset" />
          </mxGeometry>
        </mxCell>
        <mxCell id="8IRHUfgF0rJnRZtgmLyu-27" style="edgeStyle=orthogonalEdgeStyle;rounded=0;orthogonalLoop=1;jettySize=auto;html=1;exitX=0.5;exitY=0;exitDx=0;exitDy=0;exitPerimeter=0;entryX=1;entryY=0.5;entryDx=0;entryDy=0;entryPerimeter=0;" edge="1" parent="1" source="8IRHUfgF0rJnRZtgmLyu-23" target="8IRHUfgF0rJnRZtgmLyu-1">
          <mxGeometry relative="1" as="geometry">
            <mxPoint x="520" y="40" as="targetPoint" />
            <mxPoint x="290" y="365" as="sourcePoint" />
            <Array as="points">
              <mxPoint x="250" y="280" />
              <mxPoint x="450" y="280" />
              <mxPoint x="450" y="40" />
            </Array>
          </mxGeometry>
        </mxCell>
        <mxCell id="8IRHUfgF0rJnRZtgmLyu-28" value="否" style="edgeLabel;html=1;align=center;verticalAlign=middle;resizable=0;points=[];" vertex="1" connectable="0" parent="8IRHUfgF0rJnRZtgmLyu-27">
          <mxGeometry x="0.0752" y="2" relative="1" as="geometry">
            <mxPoint as="offset" />
          </mxGeometry>
        </mxCell>
        <mxCell id="8IRHUfgF0rJnRZtgmLyu-23" value="是否是json格式" style="strokeWidth=2;html=1;shape=mxgraph.flowchart.decision;whiteSpace=wrap;" vertex="1" parent="1">
          <mxGeometry x="200" y="315" width="100" height="100" as="geometry" />
        </mxCell>
        <mxCell id="8IRHUfgF0rJnRZtgmLyu-34" value="" style="edgeStyle=orthogonalEdgeStyle;rounded=0;orthogonalLoop=1;jettySize=auto;html=1;entryX=0.5;entryY=0;entryDx=0;entryDy=0;" edge="1" parent="1" source="8IRHUfgF0rJnRZtgmLyu-30" target="8IRHUfgF0rJnRZtgmLyu-36">
          <mxGeometry relative="1" as="geometry" />
        </mxCell>
        <mxCell id="8IRHUfgF0rJnRZtgmLyu-30" value="商户号检查&lt;br&gt;是否为空&lt;br&gt;是否和之前的传的商户号一致" style="strokeWidth=2;html=1;shape=mxgraph.flowchart.decision;whiteSpace=wrap;" vertex="1" parent="1">
          <mxGeometry x="605" y="485" width="100" height="100" as="geometry" />
        </mxCell>
        <mxCell id="8IRHUfgF0rJnRZtgmLyu-31" style="edgeStyle=orthogonalEdgeStyle;rounded=0;orthogonalLoop=1;jettySize=auto;html=1;entryX=1;entryY=0.5;entryDx=0;entryDy=0;entryPerimeter=0;" edge="1" parent="1" source="8IRHUfgF0rJnRZtgmLyu-30" target="8IRHUfgF0rJnRZtgmLyu-1">
          <mxGeometry relative="1" as="geometry">
            <Array as="points">
              <mxPoint x="770" y="535" />
              <mxPoint x="770" y="40" />
            </Array>
          </mxGeometry>
        </mxCell>
        <mxCell id="8IRHUfgF0rJnRZtgmLyu-32" value="否" style="edgeLabel;html=1;align=center;verticalAlign=middle;resizable=0;points=[];" vertex="1" connectable="0" parent="8IRHUfgF0rJnRZtgmLyu-31">
          <mxGeometry x="-0.3515" y="2" relative="1" as="geometry">
            <mxPoint as="offset" />
          </mxGeometry>
        </mxCell>
        <mxCell id="8IRHUfgF0rJnRZtgmLyu-39" style="edgeStyle=orthogonalEdgeStyle;rounded=0;orthogonalLoop=1;jettySize=auto;html=1;entryX=1;entryY=0.5;entryDx=0;entryDy=0;entryPerimeter=0;" edge="1" parent="1" source="8IRHUfgF0rJnRZtgmLyu-33" target="8IRHUfgF0rJnRZtgmLyu-1">
          <mxGeometry relative="1" as="geometry">
            <mxPoint x="770" y="530" as="targetPoint" />
            <Array as="points">
              <mxPoint x="810" y="830" />
              <mxPoint x="810" y="40" />
            </Array>
          </mxGeometry>
        </mxCell>
        <mxCell id="8IRHUfgF0rJnRZtgmLyu-40" value="非正常状态" style="edgeLabel;html=1;align=center;verticalAlign=middle;resizable=0;points=[];" vertex="1" connectable="0" parent="8IRHUfgF0rJnRZtgmLyu-39">
          <mxGeometry x="-0.0944" y="-1" relative="1" as="geometry">
            <mxPoint as="offset" />
          </mxGeometry>
        </mxCell>
        <mxCell id="8IRHUfgF0rJnRZtgmLyu-42" value="" style="edgeStyle=orthogonalEdgeStyle;rounded=0;orthogonalLoop=1;jettySize=auto;html=1;" edge="1" parent="1" source="8IRHUfgF0rJnRZtgmLyu-33" target="8IRHUfgF0rJnRZtgmLyu-41">
          <mxGeometry relative="1" as="geometry" />
        </mxCell>
        <mxCell id="8IRHUfgF0rJnRZtgmLyu-43" value="正常" style="edgeLabel;html=1;align=center;verticalAlign=middle;resizable=0;points=[];" vertex="1" connectable="0" parent="8IRHUfgF0rJnRZtgmLyu-42">
          <mxGeometry x="-0.1" y="1" relative="1" as="geometry">
            <mxPoint as="offset" />
          </mxGeometry>
        </mxCell>
        <mxCell id="8IRHUfgF0rJnRZtgmLyu-33" value="商户状态校验" style="strokeWidth=2;html=1;shape=mxgraph.flowchart.decision;whiteSpace=wrap;" vertex="1" parent="1">
          <mxGeometry x="605" y="780" width="100" height="100" as="geometry" />
        </mxCell>
        <mxCell id="8IRHUfgF0rJnRZtgmLyu-35" value="" style="strokeWidth=2;html=1;shape=mxgraph.flowchart.database;whiteSpace=wrap;" vertex="1" parent="1">
          <mxGeometry x="470" y="635" width="60" height="60" as="geometry" />
        </mxCell>
        <mxCell id="8IRHUfgF0rJnRZtgmLyu-37" value="" style="edgeStyle=orthogonalEdgeStyle;rounded=0;orthogonalLoop=1;jettySize=auto;html=1;" edge="1" parent="1" source="8IRHUfgF0rJnRZtgmLyu-36" target="8IRHUfgF0rJnRZtgmLyu-35">
          <mxGeometry relative="1" as="geometry" />
        </mxCell>
        <mxCell id="8IRHUfgF0rJnRZtgmLyu-38" value="" style="edgeStyle=orthogonalEdgeStyle;rounded=0;orthogonalLoop=1;jettySize=auto;html=1;" edge="1" parent="1" source="8IRHUfgF0rJnRZtgmLyu-36" target="8IRHUfgF0rJnRZtgmLyu-33">
          <mxGeometry relative="1" as="geometry" />
        </mxCell>
        <mxCell id="8IRHUfgF0rJnRZtgmLyu-36" value="查询用户信息" style="rounded=1;whiteSpace=wrap;html=1;absoluteArcSize=1;arcSize=14;strokeWidth=2;" vertex="1" parent="1">
          <mxGeometry x="605" y="630" width="100" height="70" as="geometry" />
        </mxCell>
        <mxCell id="8IRHUfgF0rJnRZtgmLyu-47" value="" style="edgeStyle=orthogonalEdgeStyle;rounded=0;orthogonalLoop=1;jettySize=auto;html=1;" edge="1" parent="1" source="8IRHUfgF0rJnRZtgmLyu-41" target="8IRHUfgF0rJnRZtgmLyu-44">
          <mxGeometry relative="1" as="geometry" />
        </mxCell>
        <mxCell id="8IRHUfgF0rJnRZtgmLyu-41" value="回调地址校验" style="strokeWidth=2;html=1;shape=mxgraph.flowchart.decision;whiteSpace=wrap;" vertex="1" parent="1">
          <mxGeometry x="364" y="780" width="100" height="100" as="geometry" />
        </mxCell>
        <mxCell id="8IRHUfgF0rJnRZtgmLyu-46" value="" style="edgeStyle=orthogonalEdgeStyle;rounded=0;orthogonalLoop=1;jettySize=auto;html=1;" edge="1" parent="1" source="8IRHUfgF0rJnRZtgmLyu-44" target="8IRHUfgF0rJnRZtgmLyu-45">
          <mxGeometry relative="1" as="geometry" />
        </mxCell>
        <mxCell id="8IRHUfgF0rJnRZtgmLyu-44" value="网关检查" style="strokeWidth=2;html=1;shape=mxgraph.flowchart.decision;whiteSpace=wrap;" vertex="1" parent="1">
          <mxGeometry x="170" y="780" width="100" height="100" as="geometry" />
        </mxCell>
        <mxCell id="8IRHUfgF0rJnRZtgmLyu-49" value="" style="edgeStyle=orthogonalEdgeStyle;rounded=0;orthogonalLoop=1;jettySize=auto;html=1;" edge="1" parent="1" source="8IRHUfgF0rJnRZtgmLyu-45" target="8IRHUfgF0rJnRZtgmLyu-48">
          <mxGeometry relative="1" as="geometry" />
        </mxCell>
        <mxCell id="8IRHUfgF0rJnRZtgmLyu-45" value="IP检查" style="strokeWidth=2;html=1;shape=mxgraph.flowchart.decision;whiteSpace=wrap;" vertex="1" parent="1">
          <mxGeometry y="780" width="100" height="100" as="geometry" />
        </mxCell>
        <mxCell id="8IRHUfgF0rJnRZtgmLyu-51" value="" style="edgeStyle=orthogonalEdgeStyle;rounded=0;orthogonalLoop=1;jettySize=auto;html=1;" edge="1" parent="1" source="8IRHUfgF0rJnRZtgmLyu-48" target="8IRHUfgF0rJnRZtgmLyu-50">
          <mxGeometry relative="1" as="geometry" />
        </mxCell>
        <mxCell id="8IRHUfgF0rJnRZtgmLyu-48" value="查询代理商" style="strokeWidth=2;html=1;shape=mxgraph.flowchart.direct_data;whiteSpace=wrap;" vertex="1" parent="1">
          <mxGeometry y="930" width="100" height="60" as="geometry" />
        </mxCell>
        <mxCell id="8IRHUfgF0rJnRZtgmLyu-53" value="" style="edgeStyle=orthogonalEdgeStyle;rounded=0;orthogonalLoop=1;jettySize=auto;html=1;" edge="1" parent="1" source="8IRHUfgF0rJnRZtgmLyu-50" target="8IRHUfgF0rJnRZtgmLyu-52">
          <mxGeometry relative="1" as="geometry" />
        </mxCell>
        <mxCell id="8IRHUfgF0rJnRZtgmLyu-50" value="查询商户通道属性" style="strokeWidth=2;html=1;shape=mxgraph.flowchart.direct_data;whiteSpace=wrap;" vertex="1" parent="1">
          <mxGeometry x="200" y="930" width="100" height="60" as="geometry" />
        </mxCell>
        <mxCell id="8IRHUfgF0rJnRZtgmLyu-56" value="" style="edgeStyle=orthogonalEdgeStyle;rounded=0;orthogonalLoop=1;jettySize=auto;html=1;" edge="1" parent="1" source="8IRHUfgF0rJnRZtgmLyu-52" target="8IRHUfgF0rJnRZtgmLyu-54">
          <mxGeometry relative="1" as="geometry" />
        </mxCell>
        <mxCell id="8IRHUfgF0rJnRZtgmLyu-52" value="商户通道属性&lt;br&gt;查询费率" style="rounded=1;whiteSpace=wrap;html=1;absoluteArcSize=1;arcSize=14;strokeWidth=2;" vertex="1" parent="1">
          <mxGeometry x="390" y="910" width="100" height="100" as="geometry" />
        </mxCell>
        <mxCell id="8IRHUfgF0rJnRZtgmLyu-57" value="" style="edgeStyle=orthogonalEdgeStyle;rounded=0;orthogonalLoop=1;jettySize=auto;html=1;" edge="1" parent="1" source="8IRHUfgF0rJnRZtgmLyu-54" target="8IRHUfgF0rJnRZtgmLyu-55">
          <mxGeometry relative="1" as="geometry" />
        </mxCell>
        <mxCell id="8IRHUfgF0rJnRZtgmLyu-54" value="随机数检查" style="strokeWidth=2;html=1;shape=mxgraph.flowchart.decision;whiteSpace=wrap;" vertex="1" parent="1">
          <mxGeometry x="520" y="910" width="100" height="100" as="geometry" />
        </mxCell>
        <mxCell id="8IRHUfgF0rJnRZtgmLyu-60" value="" style="edgeStyle=orthogonalEdgeStyle;rounded=0;orthogonalLoop=1;jettySize=auto;html=1;" edge="1" parent="1" source="8IRHUfgF0rJnRZtgmLyu-55" target="8IRHUfgF0rJnRZtgmLyu-58">
          <mxGeometry relative="1" as="geometry" />
        </mxCell>
        <mxCell id="8IRHUfgF0rJnRZtgmLyu-55" value="金额检查" style="strokeWidth=2;html=1;shape=mxgraph.flowchart.decision;whiteSpace=wrap;" vertex="1" parent="1">
          <mxGeometry x="670" y="910" width="100" height="100" as="geometry" />
        </mxCell>
        <mxCell id="8IRHUfgF0rJnRZtgmLyu-61" value="" style="edgeStyle=orthogonalEdgeStyle;rounded=0;orthogonalLoop=1;jettySize=auto;html=1;" edge="1" parent="1" source="8IRHUfgF0rJnRZtgmLyu-58" target="8IRHUfgF0rJnRZtgmLyu-59">
          <mxGeometry relative="1" as="geometry" />
        </mxCell>
        <mxCell id="8IRHUfgF0rJnRZtgmLyu-58" value="商品名称检查" style="strokeWidth=2;html=1;shape=mxgraph.flowchart.decision;whiteSpace=wrap;" vertex="1" parent="1">
          <mxGeometry x="800" y="910" width="100" height="100" as="geometry" />
        </mxCell>
        <mxCell id="8IRHUfgF0rJnRZtgmLyu-64" value="" style="edgeStyle=orthogonalEdgeStyle;rounded=0;orthogonalLoop=1;jettySize=auto;html=1;" edge="1" parent="1" source="8IRHUfgF0rJnRZtgmLyu-59" target="8IRHUfgF0rJnRZtgmLyu-63">
          <mxGeometry relative="1" as="geometry" />
        </mxCell>
        <mxCell id="8IRHUfgF0rJnRZtgmLyu-59" value="回显地址检查" style="strokeWidth=2;html=1;shape=mxgraph.flowchart.decision;whiteSpace=wrap;" vertex="1" parent="1">
          <mxGeometry x="940" y="910" width="100" height="100" as="geometry" />
        </mxCell>
        <mxCell id="8IRHUfgF0rJnRZtgmLyu-67" value="" style="edgeStyle=orthogonalEdgeStyle;rounded=0;orthogonalLoop=1;jettySize=auto;html=1;" edge="1" parent="1" source="8IRHUfgF0rJnRZtgmLyu-62" target="8IRHUfgF0rJnRZtgmLyu-66">
          <mxGeometry relative="1" as="geometry" />
        </mxCell>
        <mxCell id="8IRHUfgF0rJnRZtgmLyu-62" value="签名校验" style="strokeWidth=2;html=1;shape=mxgraph.flowchart.decision;whiteSpace=wrap;" vertex="1" parent="1">
          <mxGeometry x="800" y="1025" width="100" height="100" as="geometry" />
        </mxCell>
        <mxCell id="8IRHUfgF0rJnRZtgmLyu-65" value="" style="edgeStyle=orthogonalEdgeStyle;rounded=0;orthogonalLoop=1;jettySize=auto;html=1;" edge="1" parent="1" source="8IRHUfgF0rJnRZtgmLyu-63" target="8IRHUfgF0rJnRZtgmLyu-62">
          <mxGeometry relative="1" as="geometry" />
        </mxCell>
        <mxCell id="8IRHUfgF0rJnRZtgmLyu-63" value="计算签名" style="rounded=1;whiteSpace=wrap;html=1;absoluteArcSize=1;arcSize=14;strokeWidth=2;" vertex="1" parent="1">
          <mxGeometry x="950" y="1050" width="80" height="50" as="geometry" />
        </mxCell>
        <mxCell id="8IRHUfgF0rJnRZtgmLyu-69" value="" style="edgeStyle=orthogonalEdgeStyle;rounded=0;orthogonalLoop=1;jettySize=auto;html=1;" edge="1" parent="1" source="8IRHUfgF0rJnRZtgmLyu-66" target="8IRHUfgF0rJnRZtgmLyu-68">
          <mxGeometry relative="1" as="geometry" />
        </mxCell>
        <mxCell id="8IRHUfgF0rJnRZtgmLyu-66" value="订单号重复校验" style="strokeWidth=2;html=1;shape=mxgraph.flowchart.decision;whiteSpace=wrap;" vertex="1" parent="1">
          <mxGeometry x="550" y="1025" width="100" height="100" as="geometry" />
        </mxCell>
        <mxCell id="8IRHUfgF0rJnRZtgmLyu-71" value="" style="edgeStyle=orthogonalEdgeStyle;rounded=0;orthogonalLoop=1;jettySize=auto;html=1;" edge="1" parent="1" source="8IRHUfgF0rJnRZtgmLyu-68" target="8IRHUfgF0rJnRZtgmLyu-70">
          <mxGeometry relative="1" as="geometry" />
        </mxCell>
        <mxCell id="8IRHUfgF0rJnRZtgmLyu-68" value="选择支付通道&lt;br&gt;指定&lt;br&gt;路由" style="rounded=1;whiteSpace=wrap;html=1;absoluteArcSize=1;arcSize=14;strokeWidth=2;" vertex="1" parent="1">
          <mxGeometry x="370" y="1040" width="100" height="70" as="geometry" />
        </mxCell>
        <mxCell id="8IRHUfgF0rJnRZtgmLyu-70" value="计算手续费和收益" style="rounded=1;whiteSpace=wrap;html=1;absoluteArcSize=1;arcSize=14;strokeWidth=2;" vertex="1" parent="1">
          <mxGeometry x="200" y="1047.5" width="100" height="55" as="geometry" />
        </mxCell>
        <mxCell id="8IRHUfgF0rJnRZtgmLyu-72" value="" style="verticalLabelPosition=bottom;verticalAlign=top;html=1;strokeWidth=2;shape=mxgraph.arrows2.arrow;dy=0.6;dx=40;notch=0;rotation=0;direction=west;" vertex="1" parent="1">
          <mxGeometry x="70" y="1061.25" width="130" height="27.5" as="geometry" />
        </mxCell>
        <mxCell id="8IRHUfgF0rJnRZtgmLyu-77" style="edgeStyle=orthogonalEdgeStyle;rounded=0;orthogonalLoop=1;jettySize=auto;html=1;entryX=0;entryY=0.5;entryDx=0;entryDy=0;" edge="1" parent="1" source="8IRHUfgF0rJnRZtgmLyu-74" target="8IRHUfgF0rJnRZtgmLyu-75">
          <mxGeometry relative="1" as="geometry">
            <Array as="points">
              <mxPoint x="20" y="1158" />
            </Array>
          </mxGeometry>
        </mxCell>
        <mxCell id="8IRHUfgF0rJnRZtgmLyu-74" value="上游通道下单" style="rounded=1;whiteSpace=wrap;html=1;absoluteArcSize=1;arcSize=14;strokeWidth=2;" vertex="1" parent="1">
          <mxGeometry x="-20" y="1040" width="90" height="65" as="geometry" />
        </mxCell>
        <mxCell id="8IRHUfgF0rJnRZtgmLyu-78" style="edgeStyle=orthogonalEdgeStyle;rounded=0;orthogonalLoop=1;jettySize=auto;html=1;entryX=0;entryY=0.5;entryDx=0;entryDy=0;" edge="1" parent="1" source="8IRHUfgF0rJnRZtgmLyu-75" target="8IRHUfgF0rJnRZtgmLyu-2">
          <mxGeometry relative="1" as="geometry">
            <Array as="points">
              <mxPoint x="245" y="1250" />
              <mxPoint x="-80" y="1250" />
              <mxPoint x="-80" y="145" />
            </Array>
          </mxGeometry>
        </mxCell>
        <mxCell id="8IRHUfgF0rJnRZtgmLyu-79" value="返回下单结果" style="edgeLabel;html=1;align=center;verticalAlign=middle;resizable=0;points=[];" vertex="1" connectable="0" parent="8IRHUfgF0rJnRZtgmLyu-78">
          <mxGeometry x="-0.8057" y="3" relative="1" as="geometry">
            <mxPoint as="offset" />
          </mxGeometry>
        </mxCell>
        <mxCell id="8IRHUfgF0rJnRZtgmLyu-81" value="" style="edgeStyle=orthogonalEdgeStyle;rounded=0;orthogonalLoop=1;jettySize=auto;html=1;" edge="1" parent="1" source="8IRHUfgF0rJnRZtgmLyu-75" target="8IRHUfgF0rJnRZtgmLyu-80">
          <mxGeometry relative="1" as="geometry" />
        </mxCell>
        <mxCell id="8IRHUfgF0rJnRZtgmLyu-82" value="Text" style="edgeLabel;html=1;align=center;verticalAlign=middle;resizable=0;points=[];" vertex="1" connectable="0" parent="8IRHUfgF0rJnRZtgmLyu-81">
          <mxGeometry x="0.0727" y="-3" relative="1" as="geometry">
            <mxPoint y="1" as="offset" />
          </mxGeometry>
        </mxCell>
        <mxCell id="8IRHUfgF0rJnRZtgmLyu-75" value="返回提交报文&lt;br&gt;保存订单信息" style="rounded=1;whiteSpace=wrap;html=1;absoluteArcSize=1;arcSize=14;strokeWidth=2;" vertex="1" parent="1">
          <mxGeometry x="200" y="1125" width="90" height="65" as="geometry" />
        </mxCell>
        <mxCell id="8IRHUfgF0rJnRZtgmLyu-80" value="" style="strokeWidth=2;html=1;shape=mxgraph.flowchart.database;whiteSpace=wrap;" vertex="1" parent="1">
          <mxGeometry x="400" y="1127.5" width="60" height="60" as="geometry" />
        </mxCell>
      </root>
    </mxGraphModel>
  </diagram>
</mxfile>
